# xmcd
#
# Track frame offsets: 
#        150
#        16081
#        31112
#        47767
#        61459
#        82657
#        93188
#        107335
#        125297
#        138498
#        164679
#        175589
#
# Disc length: 2517 seconds
#
# Revision: 0
# Processed by: cddbd v1.5.2PL0 Copyright (c) Steve Scherf et al.
# Submitted via: ExactAudioCopy v0.99pb1
#
DISCID=8509d30c
DTITLE=No Lyrics - A Blues Bar Boogie Night
DYEAR=2010
DGENRE=Blues
TTITLE0=My Love Rock 'n' Roll
TTITLE1=Flip Flop and Fly
TTITLE2=For Dance's Sake
TTITLE3=Let's Rock The House Tonight
TTITLE4=Caldonia
TTITLE5=Downtown
TTITLE6=Let's Boogie
TTITLE7=Shake Rattle and Roll
TTITLE8=Rock Bottom
TTITLE9=Roll 'Em Boy
TTITLE10=Boogie Woogie Blues
TTITLE11=Blues Bar Stomp
EXTD=
EXTT0=
EXTT1=
EXTT2=
EXTT3=
EXTT4=
EXTT5=
EXTT6=
EXTT7=
EXTT8=
EXTT9=
EXTT10=
EXTT11=
PLAYORDER=
